<svg width="24" height="25" viewBox="0 0 24 25" fill="none" xmlns="http://www.w3.org/2000/svg">
<path d="M12.0485 24.2004C18.5814 24.2004 23.9429 18.8277 23.9429 12.2948C23.9429 5.77311 18.5702 0.40035 12.0485 0.40035C5.51561 0.40035 0.154111 5.77311 0.154111 12.2948C0.154111 18.8277 5.52687 24.2004 12.0485 24.2004ZM12.0598 6.14481C12.8257 6.14481 13.4114 6.66294 13.4114 7.40634V12.4074L13.265 14.7502L14.1436 13.545L15.3263 12.261C15.529 12.0132 15.8556 11.8667 16.1936 11.8667C16.8806 11.8667 17.365 12.3398 17.365 13.0044C17.365 13.3536 17.2636 13.6126 17.0045 13.8942L13.1636 17.8928C12.8482 18.2307 12.4991 18.3997 12.0598 18.3997C11.6205 18.3997 11.2826 18.242 10.9672 17.8928L7.11505 13.8942C6.85598 13.6126 6.75461 13.3536 6.75461 13.0044C6.75461 12.3398 7.23895 11.8667 7.92603 11.8667C8.26394 11.8667 8.59059 12.0132 8.79333 12.261L9.98728 13.5788L10.8433 14.739L10.7082 12.4074V7.40634C10.7082 6.66294 11.2939 6.14481 12.0598 6.14481Z" fill="white"/>
</svg>
