<svg width="25" height="27" viewBox="0 0 25 27" fill="none" xmlns="http://www.w3.org/2000/svg">
<path d="M5.3299 1.95227H19.6911C19.6009 0.870958 18.9251 0.273984 17.7762 0.273984H7.24472C6.09583 0.273984 5.42001 0.870958 5.3299 1.95227ZM3.07717 5.43274H21.9438C21.7974 4.28384 21.1666 3.60803 19.8487 3.60803H5.16095C3.8431 3.60803 3.2236 4.28384 3.07717 5.43274ZM4.51892 26.3043H20.4908C22.98 26.3043 24.3317 24.9526 24.3317 22.4859V11.1096C24.3317 8.65414 22.98 7.3025 20.4908 7.3025H4.51892C2.02965 7.3025 0.678012 8.65414 0.678012 11.1096V22.4859C0.678012 24.9526 2.02965 26.3043 4.51892 26.3043Z" fill="white"/>
</svg>
