<svg width="28" height="27" viewBox="0 0 28 27" fill="none" xmlns="http://www.w3.org/2000/svg">
<path d="M0.77297 13.4152C0.77297 14.7054 1.81742 15.7498 3.10762 15.7498H11.6322V24.2744C11.6322 25.5492 12.6612 26.609 13.9514 26.609C15.2416 26.609 16.2861 25.5492 16.2861 24.2744V15.7498H24.8106C26.0855 15.7498 27.1299 14.7054 27.1299 13.4152C27.1299 12.1403 26.0855 11.0959 24.8106 11.0959H16.2861V2.57136C16.2861 1.29652 15.2416 0.236709 13.9514 0.236709C12.6612 0.236709 11.6322 1.29652 11.6322 2.57136V11.0959H3.10762C1.81742 11.0959 0.77297 12.1403 0.77297 13.4152Z" fill="white"/>
</svg>
