<svg width="30" height="26" viewBox="0 0 30 26" fill="none" xmlns="http://www.w3.org/2000/svg">
<path d="M0.911847 12.7404C0.911847 13.5288 1.48629 14.1258 2.38739 14.1258C2.80414 14.1258 3.20963 13.9231 3.54754 13.6302L14.5859 4.38275C14.9801 4.03358 15.4194 4.03358 15.8362 4.38275L26.852 13.6302C27.1899 13.9231 27.5954 14.1258 28.0009 14.1258C28.8682 14.1258 29.4765 13.5852 29.4765 12.7516C29.4765 12.3011 29.2737 11.8731 28.8908 11.5577L25.7144 8.87695V3.95473C25.7144 3.42534 25.3652 3.08743 24.8471 3.08743H22.7746C22.2452 3.08743 21.896 3.42534 21.896 3.95473V5.67807L17.1766 1.71327C15.9826 0.710802 14.4282 0.710802 13.2343 1.71327L1.49756 11.569C1.11459 11.8843 0.911847 12.3236 0.911847 12.7404ZM4.78654 22.9903C4.78654 24.7024 5.92417 25.7724 7.72636 25.7724H22.662C24.4641 25.7724 25.6018 24.7024 25.6018 22.9903V15.0044L15.9263 6.88328C15.4645 6.48906 14.9238 6.50032 14.4733 6.88328L4.78654 15.0044V22.9903ZM18.2241 22.6637H12.153V15.7928C12.153 15.2522 12.5134 14.903 13.0541 14.903H17.3455C17.8862 14.903 18.2241 15.2522 18.2241 15.7928V22.6637Z" fill="white"/>
</svg>
