<svg width="13" height="19" viewBox="0 0 13 19" fill="none" xmlns="http://www.w3.org/2000/svg">
<path d="M6.73798 12.2237C8.47002 12.2237 9.63632 10.9268 9.63632 9.07291V3.25012C9.63632 1.38752 8.47002 0.0993652 6.73798 0.0993652C4.99723 0.0993652 3.83093 1.38752 3.83093 3.25012V9.07291C3.83093 10.9268 4.99723 12.2237 6.73798 12.2237ZM0.506104 9.21217C0.506104 12.624 2.76037 15.0176 6.07649 15.2961V17.3241H2.84741C2.48185 17.3241 2.18592 17.62 2.18592 17.9855C2.18592 18.3511 2.48185 18.6383 2.84741 18.6383H10.6198C10.9854 18.6383 11.2813 18.3511 11.2813 17.9855C11.2813 17.62 10.9854 17.3241 10.6198 17.3241H7.39076V15.2961C10.7156 15.0176 12.9611 12.624 12.9611 9.21217V7.44531C12.9611 7.07976 12.6739 6.79254 12.3084 6.79254C11.9428 6.79254 11.6469 7.07976 11.6469 7.44531V9.15995C11.6469 12.1279 9.71465 14.095 6.73798 14.095C3.7526 14.095 1.82037 12.1279 1.82037 9.15995V7.44531C1.82037 7.07976 1.53314 6.79254 1.15888 6.79254C0.793327 6.79254 0.506104 7.07976 0.506104 7.44531V9.21217Z" fill="white" fill-opacity="0.6"/>
</svg>
