<svg width="31" height="25" viewBox="0 0 31 25" fill="none" xmlns="http://www.w3.org/2000/svg">
<path d="M4.22995 20.6411H26.7798C29.0325 20.6411 30.2603 19.4359 30.2603 17.1607V4.04977C30.2603 1.77452 29.0325 0.569304 26.7798 0.569304H4.22995C1.97722 0.569304 0.749484 1.77452 0.749484 4.04977V17.1607C0.749484 19.4359 1.97722 20.6411 4.22995 20.6411ZM11.4387 15.4261V5.81817C11.4387 5.14235 12.1708 4.82697 12.7453 5.16487L20.7537 9.85055C21.3507 10.1997 21.3732 11.0332 20.765 11.3824L12.7453 16.0456C12.1708 16.3835 11.4387 16.0794 11.4387 15.4261ZM9.56892 24.7974H21.4408C22.1166 24.7974 22.6573 24.2342 22.6573 23.5922C22.6573 22.9389 22.1166 22.3757 21.4408 22.3757H9.56892C8.8931 22.3757 8.35245 22.9389 8.35245 23.5922C8.35245 24.2342 8.8931 24.7974 9.56892 24.7974Z" fill="white"/>
</svg>
