<svg width="20" height="16" viewBox="0 0 20 16" fill="none" xmlns="http://www.w3.org/2000/svg">
<path d="M0.497042 7.85927C0.497042 8.11526 0.609679 8.35077 0.814472 8.54533L7.61362 15.3342C7.81842 15.5288 8.03345 15.6209 8.2792 15.6209C8.78095 15.6209 9.18029 15.2523 9.18029 14.7403C9.18029 14.4946 9.08814 14.2488 8.9243 14.0952L6.63061 11.7606L3.17984 8.617L5.65784 8.7706H18.611C19.1435 8.7706 19.5121 8.39173 19.5121 7.85927C19.5121 7.3268 19.1435 6.94793 18.611 6.94793H5.65784L3.19008 7.10153L6.63061 3.95795L8.9243 1.6233C9.08814 1.45946 9.18029 1.22395 9.18029 0.978199C9.18029 0.466214 8.78095 0.0975856 8.2792 0.0975856C8.03345 0.0975856 7.81842 0.179503 7.59314 0.404776L0.814472 7.17321C0.609679 7.36776 0.497042 7.60327 0.497042 7.85927Z" fill="white"/>
</svg>
