<svg width="21" height="12" viewBox="0 0 21 12" fill="none" xmlns="http://www.w3.org/2000/svg">
<path d="M0.939336 2.18322H20.108C20.5381 2.18322 20.8862 1.84531 20.8862 1.41524C20.8862 0.985177 20.5381 0.637027 20.108 0.637027H0.939336C0.509269 0.637027 0.171359 0.985177 0.171359 1.41524C0.171359 1.84531 0.509269 2.18322 0.939336 2.18322ZM0.939336 6.64772H20.108C20.5381 6.64772 20.8862 6.30981 20.8862 5.87975C20.8862 5.43944 20.5381 5.09129 20.108 5.09129H0.939336C0.509269 5.09129 0.171359 5.43944 0.171359 5.87975C0.171359 6.30981 0.509269 6.64772 0.939336 6.64772ZM0.939336 11.1225H20.108C20.5381 11.1225 20.8862 10.7743 20.8862 10.334C20.8862 9.90394 20.5381 9.56603 20.108 9.56603H0.939336C0.509269 9.56603 0.171359 9.90394 0.171359 10.334C0.171359 10.7743 0.509269 11.1225 0.939336 11.1225Z" fill="white"/>
</svg>
